# xmcd
#
# Track frame offsets: 
#        187
#        13722
#        24797
#        35937
#        46610
#        58892
#        70700
#        82247
#        94507
#        104462
#        115345
#        126860
#        139930
#        151737
#        162812
#        174587
#        187040
#        200562
#        213172
#        225660
#        237907
#        249570
#
# Disc length: 3485 seconds
#
# Revision: 1
# Processed by: cddbd v1.5.2PL0 Copyright (c) Steve Scherf et al.
# Submitted via: ExactAudioCopy v0.99pb5
#
DISCID=2c0d9b16
DTITLE=Hank Williames - Great American Hero disc 4 Honky Tonk Blues (1
DTITLE=951-52)
DYEAR=1995
DGENRE=
TTITLE0=I'd Still Want You
TTITLE1=Lonesome Whistle
TTITLE2=Crazy Heart
TTITLE3=Crazy Heart (alt)
TTITLE4=Half As Much
TTITLE5=I'd Still Want You (alt)
TTITLE6=Baby, We're Really In Love
TTITLE7=I'm Sorry For You, My Friend
TTITLE8=Honky Tonk Blues
TTITLE9=Let's Turn Back The Years
TTITLE10=Window Shopping
TTITLE11=Jambalaya
TTITLE12=Settin' The Woods On Fire
TTITLE13=I'll Never Get Out Of This World Alive
TTITLE14=You Win Again
TTITLE15=I Won't Be Home No More
TTITLE16=Be Careful Of Stones That You Throw
TTITLE17=Why Don't You Make Up Your Mind
TTITLE18=I Could Never Be Ashamed Of You
TTITLE19=You Cheatin' Heart
TTITLE20=KAW-LIGA
TTITLE21=Take These Chains From My Heart
EXTD=
EXTT0=
EXTT1=
EXTT2=
EXTT3=
EXTT4=
EXTT5=
EXTT6=
EXTT7=
EXTT8=
EXTT9=
EXTT10=
EXTT11=
EXTT12=
EXTT13=
EXTT14=
EXTT15=
EXTT16=
EXTT17=
EXTT18=
EXTT19=
EXTT20=
EXTT21=
PLAYORDER=
